<svg width="1581" height="502" viewBox="0 0 1581 502" fill="none" xmlns="http://www.w3.org/2000/svg">
<path d="M698.4 75.2C656.9 62.4 623.6 56 598 56C566.9 56 551.5 66.3 551.5 87.2C551.5 98.7 559.2 107.3 575 112.8C582.2 115.4 598 119.2 622.4 123.9C656.1 130.7 680.9 140.1 696.7 152.5C712.9 164.9 721 183.7 721 208.9C721 269.9 674.9 301.5 601.9 301.5C560.5 301.5 519 293.4 478.1 276.8L492.6 220C531.9 235.8 568.6 244.3 603.2 244.7C639.4 244.7 657.8 234.5 657.8 214.4C657.8 205 653.1 198.2 646.3 193.5C642.9 190.1 633.5 186.7 628.3 185C623.2 182.8 610.4 180.3 604.9 179C599.7 177.7 584.4 175.1 578.8 173.9C545.9 167 522 157.2 507.5 144.8C492.967 132.467 485.7 114.133 485.7 89.8C485.7 62.9 496 41.1 516.5 25.3C537.4 9.09999 564.7 0.899994 599.3 0.899994C639.9 0.899994 677.9 7.30001 713.3 20.6L698.4 75.2Z" fill="#076550"/>
<path d="M901.6 295.1H840.1V61.1H738.5V4.79999H1003.2V61.1H901.6V295.1Z" fill="#076550"/>
<path fill-rule="evenodd" clip-rule="evenodd" d="M1037.4 295.1H968.2L1100.1 3.10001H1157.3L1288.4 295.1H1220.1L1196.6 241.7H1060L1037.4 295.1ZM1083.1 187.1H1173.6L1128.3 81.7L1083.1 187.1Z" fill="#076550"/>
<path fill-rule="evenodd" clip-rule="evenodd" d="M1388.3 206.3V295.1H1326.8V4.79999C1372.1 3.09999 1409.2 2.20001 1438.7 2.20001C1511.7 2.20001 1557.4 38.9 1557.4 103.4C1557.4 141.4 1536.9 173 1502.7 191.4L1576.2 295.1H1501.9L1442.1 206.3H1388.3ZM1443.8 152.5C1474.6 152.5 1496.8 132.4 1496.8 103.4C1496.8 72.2 1475.4 57.3 1439.5 57.3C1416.9 57.3 1399.8 57.3 1388.3 57.7V152.5H1443.8Z" fill="#076550"/>
<path fill-rule="evenodd" clip-rule="evenodd" d="M715.6 452.2C725.4 456 734.1 457.8 741.7 457.8C749 457.8 752.6 456.2 752.6 452.9C752.6 449.9 749.8 448.5 745.5 447.5C743.3 446.9 742.1 446.7 739 446.2L735.5 445.5C720.3 442.7 713.4 437.1 713.4 426.2C713.4 412.8 724.2 404.7 741.5 404.7C751.033 404.7 760.033 406.333 768.5 409.6L764.3 423.7C754 420.7 746.2 419.2 740.8 419.2C734.9 419.2 731.6 421.4 731.6 424.7C731.6 427.7 733.7 428.8 737.5 430C739.8 430.5 740.8 430.6 744.1 431.3L747.8 432C763.5 435.2 770.1 439.7 770.1 451.2C770.1 465.5 758.8 472.7 741 472.7C731.1 472.7 721.4 470.9 711.9 467.1L715.6 452.2ZM690.1 412.1C696.1 417.3 699.1 424.1 699.2 432.4C699.2 436.5 698.8 440.8 698 445.4H653.1C655.6 452.7 661.8 456.5 671.3 456.5C675.9 456.5 683.5 455.4 694.1 453.1L696.7 467.8C686.3 471.1 677.6 472.7 670.8 472.7C658.8 472.7 649.7 469.5 643.2 463.2C636.7 456.8 633.5 448.6 633.5 438.5C633.5 428.2 636.7 420 643 413.7C649.5 407.4 657.6 404.3 667.4 404.3C676.5 404.3 684.1 406.9 690.1 412.1ZM652.3 432.1H682.6C682.2 424.2 676.3 418.8 667.8 418.8C659.7 418.8 654 423.9 652.3 432.1ZM620.6 422C612.3 420.3 606.3 419.4 602.5 419.4C590 419.4 582.1 427 582.1 438.3C582.1 449.5 590 456.8 601.5 456.8C606.433 456.8 612.867 455.833 620.8 453.9L623.2 468.7C615.1 471.4 607.5 472.7 600.1 472.7C589.4 472.7 580.7 469.6 573.8 463.3C567.1 457 563.8 448.6 563.8 438.1C563.8 427.7 567.1 419.4 574 413.2C580.8 406.9 589.6 403.8 600.8 403.8C608.4 403.8 615.9 405 623.2 407.4L620.6 422ZM540.6 411.3C545.6 415.7 548.2 421.7 548.2 429.1V470.7H529.5V434.6C529.5 426.6 524.3 421.3 516.6 421.3C512.8 421.3 507.8 421.6 501.5 422.3V470.7H482.8V407.5C496.9 405.5 509.7 404.4 521.1 404.4C529.2 404.4 535.7 406.7 540.6 411.3ZM461.8 407.5V470.7H443.1V466.1C437.4 470.6 430.9 472.7 423.8 472.7C414.9 472.7 407.3 469.6 401.6 463.3C395.8 457 393 448.7 393 438.2C393.4 417.5 405.2 404.4 425.2 404.4C433.9 404.4 446.1 405.5 461.8 407.5ZM411.2 438.8C411.2 449.6 417.4 457.2 426.9 457.2C432.7 457.2 438.1 455 443.1 450.9V420.7C437.4 420.1 432.4 419.9 428.1 419.9C416.833 419.9 411.2 426.2 411.2 438.8ZM384.5 422.7C375.3 422.7 367.6 423 361.7 423.5V470.7H343.1V408.6C358.4 405.8 372.2 404.4 384.5 404.4V422.7ZM322.1 469.4C310.1 471.533 297.333 472.6 283.8 472.6C265.867 472.6 256.9 464.433 256.9 448.1V406.5H275.5V443.7C275.5 452.5 279.8 457 288.3 457C292.1 457 297.1 456.7 303.4 456V406.5H322.1V469.4ZM185.1 452.3C194.9 456 203.6 457.9 211.1 457.9C218.5 457.9 222.1 456.3 222.1 452.9C222.1 450 219.3 448.5 215 447.6C212.8 446.9 211.5 446.8 208.5 446.2L205 445.6C189.8 442.7 182.8 437.1 182.8 426.2C182.8 412.8 193.7 404.8 211 404.8C220.533 404.8 229.533 406.4 238 409.6L233.8 423.7C223.5 420.7 215.7 419.3 210.3 419.3C204.4 419.3 201.1 421.4 201.1 424.8C201.1 427.7 203.2 428.8 207 430C209.3 430.5 210.3 430.7 213.6 431.3L217.3 432C233 435.2 239.6 439.8 239.6 451.2C239.6 465.5 228.3 472.8 210.5 472.8C200.5 472.8 190.9 470.9 181.4 467.2L185.1 452.3ZM116 452.3C125.8 456 134.5 457.9 142 457.9C149.4 457.9 153 456.3 153 452.9C153 450 150.2 448.5 145.9 447.6C143.6 446.9 142.4 446.8 139.3 446.2L135.8 445.6C120.7 442.7 113.7 437.1 113.7 426.2C113.7 412.8 124.6 404.8 141.9 404.8C151.433 404.8 160.4 406.4 168.8 409.6L164.7 423.7C154.4 420.7 146.6 419.3 141.2 419.3C135.3 419.3 132 421.4 132 424.8C132 427.7 134.1 428.8 137.9 430C140.1 430.5 141.2 430.7 144.4 431.3L148.2 432C163.9 435.2 170.4 439.8 170.4 451.2C170.4 465.5 159.2 472.8 141.3 472.8C131.4 472.8 121.8 470.9 112.2 467.1L116 452.3ZM21.9 470.9H0.200012L41.6 379.1H59.6L100.8 470.9H79.3L71.9 454.1H29L21.9 470.9ZM36.3 437H64.7L50.5 403.8L36.3 437Z" fill="#076550"/>
<path fill-rule="evenodd" clip-rule="evenodd" d="M1561.4 449.4V415.7H1580.7V450.1C1580.7 464.9 1567.6 474.5 1546.2 475.6V475.7H1443.5V475.4C1423.2 473.9 1412.7 464.2 1412.7 449.4V392.5H1432V449C1432 456.8 1436.3 460.9 1449.6 460.9H1541.9C1555.2 460.9 1561.4 456.9 1561.4 449.4ZM1558.6 404.5H1543.1V388.5H1558.6V404.5ZM1581.8 404.5H1566.3V388.4H1581.8V404.5ZM1401.2 385.4V379.1H1408V377.8C1408 374.7 1409.3 366 1420.7 366C1426.7 366 1430.5 368.2 1432.6 372.4C1431.8 372.467 1429.07 372.867 1424.4 373.6C1423.3 372.4 1422.3 372 1421 372C1416.5 372 1416.5 375.9 1416.5 377.7V379.1H1434.3V385.4H1401.2ZM1364.9 475.7C1355.3 475.7 1346.8 473 1341.8 466.2C1337.9 472.4 1329.8 475 1319.8 475.6V475.7H1240.8C1231.2 475.7 1223.4 473.4 1217.4 469.4C1211.8 473.6 1203.8 475.7 1194.5 475.7H1138.8C1129.2 475.7 1121.5 473.4 1115.4 469.4C1109.9 473.6 1101.8 475.7 1092.5 475.7H963.9V475.5C943.7 473.9 933.1 464.2 933.1 449.4V392.5H952.5V449C952.5 456.8 956.8 460.9 970.1 460.9H1092.5C1100.6 460.9 1105.1 457.3 1105.1 451.7V415.7H1124.6V452.1C1124.6 457.4 1129.2 460.9 1138.8 460.9H1194.5C1202.5 460.9 1207 457.3 1207 451.7V415.8H1226.5V452.1C1226.5 457.4 1231.2 460.9 1240.8 460.9H1315.5C1331.9 460.9 1331.4 448.2 1331.9 439.7C1333 422.8 1345.5 411.6 1364.9 411.6C1385.9 411.6 1397.8 424.4 1397.8 443.7C1397.8 463.1 1386.1 475.7 1364.9 475.7ZM1364.9 425.2C1357.1 425.2 1351.9 429.8 1351.9 444C1351.9 457.4 1357 462.1 1364.9 462.1C1372.8 462.1 1378 457.3 1378 444.1C1378 429.8 1372.8 425.2 1364.9 425.2ZM1200.5 501.6H1183.4V485.6H1200.5V501.6ZM1225.4 501.6H1208.3V485.5H1225.4V501.6ZM1124.4 404.5H1104.8V388.5H1124.4V404.5ZM884.9 475.6H856.9C835.7 475.6 823 465.6 823 449.2V415.7H842.3V448.8C842.3 456.9 845.7 460.9 855.8 460.9H884.9C894.9 460.9 899 456.8 899 448.8V415.7H918.3V449.2C918.3 465.4 905.8 475.5 884.9 475.6ZM866.8 404.5H849.6V388.4H866.8V404.5ZM891.7 404.5H874.5V388.5H891.7V404.5Z" fill="#076550"/>
</svg>
