<svg width="1581" height="136" viewBox="0 0 1581 136" fill="none" xmlns="http://www.w3.org/2000/svg">
<path fill-rule="evenodd" clip-rule="evenodd" d="M715.6 86.2C725.4 90 734.1 91.8 741.7 91.8C749 91.8 752.6 90.2 752.6 86.9C752.6 83.9 749.8 82.5 745.5 81.5C743.3 80.9 742.1 80.7 739 80.2L735.5 79.5C720.3 76.7 713.4 71.1 713.4 60.2C713.4 46.8 724.2 38.7 741.5 38.7C751.033 38.7 760.033 40.3333 768.5 43.6L764.3 57.7C754 54.7 746.2 53.2 740.8 53.2C734.9 53.2 731.6 55.4 731.6 58.7C731.6 61.7 733.7 62.8 737.5 64C739.8 64.5 740.8 64.6 744.1 65.3L747.8 66C763.5 69.2 770.1 73.7 770.1 85.2C770.1 99.5 758.8 106.7 741 106.7C731.1 106.7 721.4 104.9 711.9 101.1L715.6 86.2ZM690.1 46.1C696.1 51.3 699.1 58.1 699.2 66.4C699.2 70.5 698.8 74.8 698 79.4H653.1C655.6 86.7 661.8 90.5 671.3 90.5C675.9 90.5 683.5 89.4 694.1 87.1L696.7 101.8C686.3 105.1 677.6 106.7 670.8 106.7C658.8 106.7 649.7 103.5 643.2 97.2C636.7 90.8 633.5 82.6 633.5 72.5C633.5 62.2 636.7 54 643 47.7C649.5 41.4 657.6 38.3 667.4 38.3C676.5 38.3 684.1 40.9 690.1 46.1ZM652.3 66.1H682.6C682.2 58.2 676.3 52.8 667.8 52.8C659.7 52.8 654 57.9 652.3 66.1ZM620.6 56C612.3 54.3 606.3 53.4 602.5 53.4C590 53.4 582.1 61 582.1 72.3C582.1 83.5 590 90.8 601.5 90.8C606.433 90.8 612.867 89.8334 620.8 87.9L623.2 102.7C615.1 105.4 607.5 106.7 600.1 106.7C589.4 106.7 580.7 103.6 573.8 97.3C567.1 91 563.8 82.6 563.8 72.1C563.8 61.7 567.1 53.4 574 47.2C580.8 40.9 589.6 37.8 600.8 37.8C608.4 37.8 615.9 39 623.2 41.4L620.6 56ZM540.6 45.3C545.6 49.7 548.2 55.7 548.2 63.1V104.7H529.5V68.6C529.5 60.6 524.3 55.3 516.6 55.3C512.8 55.3 507.8 55.6 501.5 56.3V104.7H482.8V41.5C496.9 39.5 509.7 38.4 521.1 38.4C529.2 38.4 535.7 40.7 540.6 45.3ZM461.8 41.5V104.7H443.1V100.1C437.4 104.6 430.9 106.7 423.8 106.7C414.9 106.7 407.3 103.6 401.6 97.3C395.8 91 393 82.7 393 72.2C393.4 51.5 405.2 38.4 425.2 38.4C433.9 38.4 446.1 39.5 461.8 41.5ZM411.2 72.8C411.2 83.6 417.4 91.2 426.9 91.2C432.7 91.2 438.1 89 443.1 84.9V54.7C437.4 54.1 432.4 53.9 428.1 53.9C416.833 53.9 411.2 60.2 411.2 72.8ZM384.5 56.7C375.3 56.7 367.6 57 361.7 57.5V104.7H343.1V42.6C358.4 39.8 372.2 38.4 384.5 38.4V56.7ZM322.1 103.4C310.1 105.533 297.333 106.6 283.8 106.6C265.867 106.6 256.9 98.4333 256.9 82.1V40.5H275.5V77.7C275.5 86.5 279.8 91 288.3 91C292.1 91 297.1 90.7 303.4 90V40.5H322.1V103.4ZM185.1 86.3C194.9 90 203.6 91.9 211.1 91.9C218.5 91.9 222.1 90.3 222.1 86.9C222.1 84 219.3 82.5 215 81.6C212.8 80.9 211.5 80.8 208.5 80.2L205 79.6C189.8 76.7 182.8 71.1 182.8 60.2C182.8 46.8 193.7 38.8 211 38.8C220.533 38.8 229.533 40.4 238 43.6L233.8 57.7C223.5 54.7 215.7 53.3 210.3 53.3C204.4 53.3 201.1 55.4 201.1 58.8C201.1 61.7 203.2 62.8 207 64C209.3 64.5 210.3 64.7 213.6 65.3L217.3 66C233 69.2 239.6 73.8 239.6 85.2C239.6 99.5 228.3 106.8 210.5 106.8C200.5 106.8 190.9 104.9 181.4 101.2L185.1 86.3ZM116 86.3C125.8 90 134.5 91.9 142 91.9C149.4 91.9 153 90.3 153 86.9C153 84 150.2 82.5 145.9 81.6C143.6 80.9 142.4 80.8 139.3 80.2L135.8 79.6C120.7 76.7 113.7 71.1 113.7 60.2C113.7 46.8 124.6 38.8 141.9 38.8C151.433 38.8 160.4 40.4 168.8 43.6L164.7 57.7C154.4 54.7 146.6 53.3 141.2 53.3C135.3 53.3 132 55.4 132 58.8C132 61.7 134.1 62.8 137.9 64C140.1 64.5 141.2 64.7 144.4 65.3L148.2 66C163.9 69.2 170.4 73.8 170.4 85.2C170.4 99.5 159.2 106.8 141.3 106.8C131.4 106.8 121.8 104.9 112.2 101.1L116 86.3ZM21.9 104.9H0.200012L41.6 13.1H59.6L100.8 104.9H79.3L71.9 88.1H29L21.9 104.9ZM36.3 71H64.7L50.5 37.8L36.3 71Z" fill="#076550"/>
<path fill-rule="evenodd" clip-rule="evenodd" d="M1561.4 83.4V49.7H1580.7V84.1C1580.7 98.9 1567.6 108.5 1546.2 109.6V109.7H1443.5V109.4C1423.2 107.9 1412.7 98.2 1412.7 83.4V26.5H1432V83C1432 90.8 1436.3 94.9 1449.6 94.9H1541.9C1555.2 94.9 1561.4 90.9 1561.4 83.4ZM1558.6 38.5H1543.1V22.5H1558.6V38.5ZM1581.8 38.5H1566.3V22.4H1581.8V38.5ZM1401.2 19.4V13.1H1408V11.8C1408 8.69999 1409.3 0 1420.7 0C1426.7 0 1430.5 2.20002 1432.6 6.40002C1431.8 6.46669 1429.07 6.86664 1424.4 7.59998C1423.3 6.39998 1422.3 6 1421 6C1416.5 6 1416.5 9.90001 1416.5 11.7V13.1H1434.3V19.4H1401.2ZM1364.9 109.7C1355.3 109.7 1346.8 107 1341.8 100.2C1337.9 106.4 1329.8 109 1319.8 109.6V109.7H1240.8C1231.2 109.7 1223.4 107.4 1217.4 103.4C1211.8 107.6 1203.8 109.7 1194.5 109.7H1138.8C1129.2 109.7 1121.5 107.4 1115.4 103.4C1109.9 107.6 1101.8 109.7 1092.5 109.7H963.9V109.5C943.7 107.9 933.1 98.2 933.1 83.4V26.5H952.5V83C952.5 90.8 956.8 94.9 970.1 94.9H1092.5C1100.6 94.9 1105.1 91.3 1105.1 85.7V49.7H1124.6V86.1C1124.6 91.4 1129.2 94.9 1138.8 94.9H1194.5C1202.5 94.9 1207 91.3 1207 85.7V49.8H1226.5V86.1C1226.5 91.4 1231.2 94.9 1240.8 94.9H1315.5C1331.9 94.9 1331.4 82.2 1331.9 73.7C1333 56.8 1345.5 45.6 1364.9 45.6C1385.9 45.6 1397.8 58.4 1397.8 77.7C1397.8 97.1 1386.1 109.7 1364.9 109.7ZM1364.9 59.2C1357.1 59.2 1351.9 63.8 1351.9 78C1351.9 91.4 1357 96.1 1364.9 96.1C1372.8 96.1 1378 91.3 1378 78.1C1378 63.8 1372.8 59.2 1364.9 59.2ZM1200.5 135.6H1183.4V119.6H1200.5V135.6ZM1225.4 135.6H1208.3V119.5H1225.4V135.6ZM1124.4 38.5H1104.8V22.5H1124.4V38.5ZM884.9 109.6H856.9C835.7 109.6 823 99.6 823 83.2V49.7H842.3V82.8C842.3 90.9 845.7 94.9 855.8 94.9H884.9C894.9 94.9 899 90.8 899 82.8V49.7H918.3V83.2C918.3 99.4 905.8 109.5 884.9 109.6ZM866.8 38.5H849.6V22.4H866.8V38.5ZM891.7 38.5H874.5V22.5H891.7V38.5Z" fill="#076550"/>
</svg>
