<svg width="1099" height="302" viewBox="0 0 1099 302" fill="none" xmlns="http://www.w3.org/2000/svg">
<path d="M220.4 75.2C178.9 62.4 145.6 56 120 56C88.9 56 73.5 66.3 73.5 87.2C73.5 98.7 81.2 107.3 97 112.8C104.2 115.4 120 119.2 144.4 123.9C178.1 130.7 202.9 140.1 218.7 152.5C234.9 164.9 243 183.7 243 208.9C243 269.9 196.9 301.5 123.9 301.5C82.5 301.5 41 293.4 0.0999756 276.8L14.6 220C53.9 235.8 90.6 244.3 125.2 244.7C161.4 244.7 179.8 234.5 179.8 214.4C179.8 205 175.1 198.2 168.3 193.5C164.9 190.1 155.5 186.7 150.3 185C145.2 182.8 132.4 180.3 126.9 179C121.7 177.7 106.4 175.1 100.8 173.9C67.9 167 44 157.2 29.5 144.8C14.9667 132.467 7.70001 114.133 7.70001 89.8C7.70001 62.9 18 41.1 38.5 25.3C59.4 9.09999 86.7 0.899994 121.3 0.899994C161.9 0.899994 199.9 7.30001 235.3 20.6L220.4 75.2Z" fill="#076550"/>
<path d="M423.6 295.1H362.1V61.1H260.5V4.79999H525.2V61.1H423.6V295.1Z" fill="#076550"/>
<path fill-rule="evenodd" clip-rule="evenodd" d="M559.4 295.1H490.2L622.1 3.10001H679.3L810.4 295.1H742.1L718.6 241.7H582L559.4 295.1ZM605.1 187.1H695.6L650.3 81.7L605.1 187.1Z" fill="#076550"/>
<path fill-rule="evenodd" clip-rule="evenodd" d="M910.3 206.3V295.1H848.8V4.79999C894.1 3.09999 931.2 2.20001 960.7 2.20001C1033.7 2.20001 1079.4 38.9 1079.4 103.4C1079.4 141.4 1058.9 173 1024.7 191.4L1098.2 295.1H1023.9L964.1 206.3H910.3ZM965.8 152.5C996.6 152.5 1018.8 132.4 1018.8 103.4C1018.8 72.2 997.4 57.3 961.5 57.3C938.9 57.3 921.8 57.3 910.3 57.7V152.5H965.8Z" fill="#076550"/>
</svg>
